<?xml version="1.0" standalone="no"?>
<!DOCTYPE svg PUBLIC "-//W3C//DTD SVG 20010904//EN" "http://www.w3.org/TR/2001/REC-SVG-20010904/DTD/svg10.dtd">
<!-- Created using Krita: https://krita.org -->
<svg xmlns="http://www.w3.org/2000/svg" 
    xmlns:xlink="http://www.w3.org/1999/xlink"
    xmlns:krita="http://krita.org/namespaces/svg/krita"
    xmlns:sodipodi="http://sodipodi.sourceforge.net/DTD/sodipodi-0.dtd"
    width="192pt"
    height="192pt"
    viewBox="0 0 192 192">
<defs/>
<path id="shape0" transform="matrix(-0.9999999902209 0 0 0.9999999902209 156.144729550933 159.548325214204)" fill="#b4b1b4" fill-rule="evenodd" stroke="#000000" stroke-width="3.6" stroke-linecap="square" stroke-linejoin="bevel" d="M38.5675 0C-24.9976 6.4312 0.765341 53.3232 39.0475 11.52"/><path id="shape1" transform="matrix(-0.9999999902209 0 0 0.9999999902209 156.097190375224 168.668332798586)" fill="#000000" fill-opacity="0.443137254901961" fill-rule="evenodd" stroke="#000000" stroke-opacity="0" stroke-width="0" stroke-linecap="square" stroke-linejoin="bevel" d="M0 13.68C6.84776 10.81 12.1482 17.187 37.8 0C42.1454 8.6907 7.92 25.2825 7.92 18"/><path id="shape0" transform="translate(37.3924525335476, 158.639992326433)" fill="#b4b1b4" fill-rule="evenodd" stroke="#000000" stroke-width="3.6" stroke-linecap="square" stroke-linejoin="bevel" d="M38.5675 0C-24.9976 6.4312 0.765349 53.3232 39.0475 11.52"/><path id="shape1" transform="matrix(1.00648289388808 0 0 1.00648289388808 98.1996293265402 16.7999991836631)" fill="none" stroke="#000000" stroke-width="3.6" stroke-linecap="square" stroke-linejoin="bevel" d="M1.0997 30.1414C-0.713714 30.1414 0.290257 22.8587 0.173284 21.572C-0.497307 14.1955 4.49125 6.54057 17.8447 0"/><path id="shape12" transform="matrix(0.301446190135243 -0.000369571126374863 0.000369571126374863 0.301446190135243 71.6724193005768 118.502183897406)" fill="#b4b1b4" fill-rule="evenodd" stroke="#000000" stroke-width="14.4" stroke-linecap="square" stroke-linejoin="bevel" d="M37.8857 261.786C8.06083 259.063 -15.811 283.881 13.0187 136.374C23.9405 80.4914 0.0758304 16.7355 27.8205 8.30855C128.914 -22.3966 148.741 38.1548 153.341 89.5934C158.756 150.172 169.637 231.671 148.9 256.808C119.908 291.949 87.168 266.284 37.8857 261.786Z"/><rect id="shape2" transform="matrix(1.00648289388808 0 0 1.00648289388808 21.4800065365265 45.883290903612)" fill="#b4b1b4" fill-rule="evenodd" stroke="#000000" stroke-width="3.6" stroke-linecap="square" stroke-linejoin="bevel" width="148.08" height="109.44" rx="48" ry="48"/><g id="group0" transform="matrix(1.00648289388808 0 0 1.00648289388808 68.0276562885228 127.515703423787)" fill="none">
  <path id="shape3" fill="#8d8b8c" fill-rule="evenodd" stroke="#000000" stroke-width="3.6" stroke-linecap="square" stroke-linejoin="bevel" d="M0.000980667 3.27315C-0.267097 18.8394 54.5164 19.5977 53.9648 3.04155C53.816 -1.42376 0.0685655 -0.651237 0.000980667 3.27315Z"/>
  <path id="shape4" transform="matrix(-1 0 0 1 18.3112258653449 1.65192012829013)" fill="#8d8b8c" fill-rule="evenodd" stroke="#000000" stroke-width="3.6" stroke-linecap="square" stroke-linejoin="bevel" d="M1.17152 0C-0.21107 0 0.0135021 11.2579 0.0135021 13.4331"/>
  <path id="shape5" transform="matrix(-1 0 0 1 37.9047183254047 2.11512881345297)" fill="#8d8b8c" fill-rule="evenodd" stroke="#000000" stroke-width="3.6" stroke-linecap="square" stroke-linejoin="bevel" d="M0.847043 0C-0.484682 2.52453 0.15223 8.64558 0.15223 12.275"/>
 </g><path id="shape01" transform="matrix(-1.00648290760557 0 0 1.00648290760557 156.123007230579 72.9737609303724)" fill="#1a1a1a" fill-rule="evenodd" stroke="#000000" stroke-width="3.6" stroke-linecap="square" stroke-linejoin="bevel" d="M14.2447 48.408C22.7292 49.0049 37.7113 45.2797 45.048 37.7542C52.0985 30.5223 51.6622 19.5853 52.2278 15.0569C55.5404 -1.25298 11.2178 -9.54004 1.73803 17.8362C-4.36736 35.4676 7.01322 47.8992 14.2447 48.408Z"/><path id="shape02" transform="matrix(1.00648288988672 0 0 1.00648288988672 34.2511098746613 72.8190168051085)" fill="#1a1a1a" fill-rule="evenodd" stroke="#000000" stroke-width="3.6" stroke-linecap="square" stroke-linejoin="bevel" d="M14.2447 48.408C18.7515 48.3067 35.1535 47.7594 44.4025 39.2975C50.9214 33.3334 51.5207 20.03 52.2278 15.0569C55.5404 -1.25298 11.2178 -9.54004 1.73803 17.8362C-4.36736 35.4676 7.01322 47.8992 14.2447 48.408Z"/><path id="shape6" transform="matrix(0.561165429920765 0.835524491532818 -0.835524491532818 0.561165429920765 119.999994169022 5.75999972011307)" fill="#fb3b02" fill-rule="evenodd" stroke="#000000" stroke-width="3.6" stroke-linecap="square" stroke-linejoin="bevel" d="M10.3364 19.0446C1.99971 21.646 -1.23502 14.7847 0.418441 8.45574C1.27264 5.18614 3.43143 2.05864 6.86536 0.451348C15.1666 -3.43416 20.4823 19.0446 10.3364 19.0446"/><path id="shape7" transform="matrix(1.2609553635644 0 0 1.2609553635644 52.4213789794838 73.8972994794536)" fill="#000000" fill-opacity="0.364705882352941" fill-rule="evenodd" d="M91.2 0C90.3967 58.966 32.6494 61.746 0 61.92C18.0927 66.1055 60.3045 68.609 72 60C89.4619 54.5418 95.8619 34.5418 91.2 0Z"/><path id="shape8" transform="matrix(1.2609553635644 0 0 1.2609553635644 49.3796369091392 87.6926321938878)" fill="#000000" fill-opacity="0.219607843137255" fill-rule="evenodd" d="M31.3461 0.156089C30.5003 3.09582 25.5558 17.641 21.9861 22.1161C14.6645 26.5556 -1.71391 28.3157 0.146112 28.7161C4.52201 29.658 23.2896 27.7909 26.6661 25.5961C30.0602 23.3899 32.0312 -2.22499 31.3461 0.156089Z"/><path id="shape03" transform="matrix(-1.26095531598173 0 0 1.26095531598173 139.216834086929 97.2311873837865)" fill="#000000" fill-opacity="0.219607843137255" fill-rule="evenodd" stroke="#000000" stroke-opacity="0" stroke-width="0" stroke-linecap="square" stroke-linejoin="bevel" d="M28.6049 0.228348C27.7591 3.16808 23.5345 9.07325 19.9649 13.5483C12.6433 17.9879 -1.69514 19.268 0.164874 19.6683C4.54077 20.6103 21.2683 19.2231 24.6449 17.0283C28.039 14.8222 29.2899 -2.15273 28.6049 0.228348Z"/><path id="shape9" transform="matrix(1.12909088486745 0 0 1.12909088486745 27.9835670838635 53.290217126414)" fill="#ffffff" fill-opacity="0.454901960784314" fill-rule="evenodd" stroke="#000000" stroke-opacity="0" stroke-width="0" stroke-linecap="square" stroke-linejoin="bevel" d="M0 24C8.19444 18.2657 6.33308 19.92 12.48 11.52C18.8308 2.84144 29.6728 2.83257 29.76 0C13.3787 0.453259 10.689 5.38369 0 24Z"/><path id="shape10" transform="translate(37.44, 167.76)" fill="#000000" fill-opacity="0.443137254901961" fill-rule="evenodd" stroke="#000000" stroke-opacity="0" stroke-width="0" stroke-linecap="square" stroke-linejoin="bevel" d="M0 13.68C6.84776 10.81 12.1482 17.187 37.8 0C42.1454 8.6907 7.92 25.2825 7.92 18"/>
</svg>
